<svg width="75" height="75" viewBox="0 0 75 75" fill="none" xmlns="http://www.w3.org/2000/svg">
<path d="M21 55L21 22C21 20.4087 21.6532 18.8826 22.8159 17.7574C23.9787 16.6321 25.5557 16 27.2 16L28.75 16C29.1611 16 29.5553 15.842 29.846 15.5607C30.1367 15.2794 30.3 14.8978 30.3 14.5C30.3 14.1022 30.4633 13.7206 30.754 13.4393C31.0447 13.158 31.4389 13 31.85 13L41.15 13C41.5611 13 41.9553 13.158 42.246 13.4393C42.5367 13.7206 42.7 14.1022 42.7 14.5C42.7 14.8978 42.8633 15.2794 43.154 15.5607C43.4447 15.842 43.8389 16 44.25 16L45.8 16C47.4443 16 49.0213 16.6321 50.1841 17.7574C51.3468 18.8826 52 20.4087 52 22L52 55C52 56.5913 51.3468 58.1174 50.1841 59.2426C49.0213 60.3679 47.4443 61 45.8 61L36.5 61L27.2 61C25.5557 61 23.9787 60.3679 22.8159 59.2426C21.6532 58.1174 21 56.5913 21 55Z" stroke="#1F8ECE" stroke-width="6.25" stroke-linecap="round" stroke-linejoin="round"/>
<line x1="31.5" y1="50.5" x2="41.5" y2="50.5" stroke="#FFC149" stroke-width="9" stroke-linecap="round"/>
</svg>
